<svg width="50" height="50" viewBox="0 0 50 50" fill="none" xmlns="http://www.w3.org/2000/svg">
<g clip-path="url(#clip0_86_26)">
<path fill-rule="evenodd" clip-rule="evenodd" d="M5.89063 1.59672C6.43743 1.05075 7.09401 0.627218 7.81687 0.354192C8.53973 0.0811664 9.31237 -0.035118 10.0836 0.0130452C10.8548 0.0612084 11.6069 0.272719 12.2902 0.633561C12.9735 0.994403 13.5723 1.49634 14.0469 2.1061L19.6563 9.31235C20.6844 10.6342 21.0469 12.3561 20.6406 13.9811L18.9313 20.8248C18.8435 21.1793 18.8486 21.5505 18.946 21.9024C19.0434 22.2544 19.2299 22.5753 19.4875 22.8342L27.1656 30.5123C27.4248 30.7704 27.7463 30.9572 28.0989 31.0547C28.4514 31.1521 28.8232 31.1569 29.1781 31.0686L36.0188 29.3592C36.8208 29.1599 37.6575 29.1449 38.4661 29.3154C39.2748 29.4859 40.0343 29.8374 40.6875 30.3436L47.8938 35.9498C50.4844 37.9655 50.7219 41.7936 48.4031 44.1092L45.1719 47.3405C42.8594 49.653 39.4031 50.6686 36.1813 49.5342C27.9334 46.636 20.4454 41.9147 14.275 35.7217C8.08242 29.5522 3.36111 22.0654 0.462507 13.8186C-0.668743 10.5998 0.346882 7.14047 2.65938 4.82797L5.89063 1.59672Z" fill="black"/>
</g>
<defs>
<clipPath id="clip0_86_26">
<rect width="50" height="50" fill="white"/>
</clipPath>
</defs>
</svg>
