<svg width="17" height="15" viewBox="0 0 17 15" fill="none" xmlns="http://www.w3.org/2000/svg">
<path d="M8.72431 11.9098C10.1819 18.5457 18.406 13.1134 10.2381 8.49104C19.2402 13.5863 19.2616 1.41897 10.2564 6.51026C19.2616 1.41936 8.50898 -4.66666 8.50695 5.51987C8.50898 -4.66666 -2.24529 1.41462 6.75552 6.51026C-2.24529 1.41423 -2.25582 13.5819 6.74783 8.49025C-1.42443 13.1102 6.78102 18.5489 8.239 11.8996L8.72431 11.9098ZM7.4238 7.50104C7.42337 7.36205 7.45103 7.22434 7.50521 7.09578C7.55938 6.96722 7.639 6.85034 7.73951 6.7518C7.84003 6.65326 7.95947 6.575 8.09101 6.5215C8.22256 6.468 8.36362 6.44031 8.50614 6.44C8.64863 6.44036 8.78965 6.46809 8.92115 6.52162C9.05264 6.57514 9.17204 6.6534 9.27251 6.75194C9.37299 6.85047 9.45257 6.96734 9.50672 7.09587C9.56086 7.22441 9.58851 7.36209 9.58809 7.50104C9.58851 7.64 9.56086 7.77768 9.50672 7.90621C9.45257 8.03475 9.37299 8.15162 9.27251 8.25015C9.17204 8.34868 9.05264 8.42695 8.92115 8.48047C8.78965 8.53399 8.64863 8.56173 8.50614 8.56209C8.2184 8.56115 7.9428 8.44888 7.73987 8.24994C7.53694 8.051 7.42326 7.78165 7.4238 7.50104Z" fill="#2F0E3B"/>
</svg>
