<svg width="134" height="45" viewBox="0 0 134 45" fill="none" xmlns="http://www.w3.org/2000/svg">
<path d="M1.5 20.55L3.3 20.1V0.899999L1.5 0.449998V-1.43051e-06H9.15C12.73 -1.43051e-06 15.47 0.919999 17.37 2.76C19.29 4.6 20.25 7.18 20.25 10.5C20.25 13.82 19.29 16.4 17.37 18.24C15.47 20.08 12.73 21 9.15 21H1.5V20.55ZM9.15 20.25C11.01 20.25 12.45 19.5 13.47 18C14.49 16.48 15 13.98 15 10.5C15 7.02 14.49 4.53 13.47 3.03C12.45 1.51 11.01 0.75 9.15 0.75H8.25V20.25H9.15ZM30.5953 21.45C28.1153 21.45 26.1653 20.75 24.7453 19.35C23.3453 17.93 22.6453 15.98 22.6453 13.5C22.6453 11.02 23.3453 9.08 24.7453 7.68C26.1653 6.26 28.1153 5.55 30.5953 5.55C33.0753 5.55 35.0153 6.26 36.4153 7.68C37.8353 9.08 38.5453 11.02 38.5453 13.5C38.5453 15.98 37.8353 17.93 36.4153 19.35C35.0153 20.75 33.0753 21.45 30.5953 21.45ZM30.5953 20.85C31.3953 20.85 32.0653 20.29 32.6053 19.17C33.1653 18.05 33.4453 16.16 33.4453 13.5C33.4453 10.84 33.1653 8.95 32.6053 7.83C32.0653 6.71 31.3953 6.15 30.5953 6.15C29.7953 6.15 29.1153 6.71 28.5553 7.83C28.0153 8.95 27.7453 10.84 27.7453 13.5C27.7453 16.16 28.0153 18.05 28.5553 19.17C29.1153 20.29 29.7953 20.85 30.5953 20.85ZM49.0559 21.45C46.4959 21.45 44.5059 20.75 43.0859 19.35C41.6659 17.93 40.9559 15.98 40.9559 13.5C40.9559 11.02 41.6659 9.08 43.0859 7.68C44.5059 6.26 46.4959 5.55 49.0559 5.55C50.8959 5.55 52.2759 5.87 53.1959 6.51C54.1359 7.15 54.6059 7.93 54.6059 8.85C54.6059 9.53 54.3959 10.08 53.9759 10.5C53.5759 10.9 53.0359 11.1 52.3559 11.1C52.0759 11.1 51.7959 11.08 51.5159 11.04L51.1559 10.95V6.45L50.7359 6.3C50.4359 6.2 50.0759 6.15 49.6559 6.15C48.5159 6.15 47.6259 6.69 46.9859 7.77C46.3659 8.85 46.0559 10.76 46.0559 13.5C46.0559 16.16 46.3659 18.03 46.9859 19.11C47.6259 20.17 48.5159 20.7 49.6559 20.7C50.4359 20.7 51.1559 20.52 51.8159 20.16C52.4959 19.78 53.0259 19.29 53.4059 18.69C53.8059 18.07 54.0059 17.44 54.0059 16.8H54.7559C54.7559 17.6 54.5159 18.36 54.0359 19.08C53.5559 19.8 52.8859 20.38 52.0259 20.82C51.1659 21.24 50.1759 21.45 49.0559 21.45ZM64.9641 21.45C62.4041 21.45 60.4141 20.75 58.9941 19.35C57.5741 17.93 56.8641 15.98 56.8641 13.5C56.8641 11.88 57.1741 10.47 57.7941 9.27C58.4141 8.07 59.2741 7.15 60.3741 6.51C61.4941 5.87 62.7741 5.55 64.2141 5.55C65.6541 5.55 66.9141 5.82 67.9941 6.36C69.0941 6.9 69.9341 7.63 70.5141 8.55C71.1141 9.45 71.4141 10.45 71.4141 11.55C71.4141 12.05 71.3641 12.48 71.2641 12.84L71.1141 13.35C70.2541 13.53 69.3241 13.68 68.3241 13.8C66.2241 14.1 64.1041 14.25 61.9641 14.25C61.9641 16.57 62.2841 18.23 62.9241 19.23C63.5641 20.21 64.4441 20.7 65.5641 20.7C66.3441 20.7 67.0641 20.52 67.7241 20.16C68.4041 19.78 68.9341 19.29 69.3141 18.69C69.7141 18.07 69.9141 17.44 69.9141 16.8H70.6641C70.6641 17.6 70.4241 18.36 69.9441 19.08C69.4641 19.8 68.7941 20.38 67.9341 20.82C67.0741 21.24 66.0841 21.45 64.9641 21.45ZM61.9641 13.5C63.2441 13.5 64.2841 13.45 65.0841 13.35C65.4241 13.33 65.7841 13.28 66.1641 13.2C66.1841 13.1 66.2341 12.88 66.3141 12.54C66.4141 12.04 66.4641 11.51 66.4641 10.95C66.4641 9.29 66.2441 8.08 65.8041 7.32C65.3641 6.54 64.8341 6.15 64.2141 6.15C62.7141 6.15 61.9641 8.6 61.9641 13.5ZM1.5 42.55L3.3 42.1V22.9L1.5 22.45V22H17.55V27.4H16.65C16.27 27.1 15.94 26.72 15.66 26.26C15.02 25.18 14.7 24.01 14.7 22.75H8.25V32.2H11.7C11.84 31.44 12.1 30.73 12.48 30.07C12.64 29.77 12.83 29.48 13.05 29.2H13.95V35.95H13.05C12.83 35.67 12.64 35.38 12.48 35.08C12.1 34.42 11.84 33.71 11.7 32.95H8.25V42.25H15.3C15.3 40.99 15.62 39.82 16.26 38.74C16.54 38.28 16.87 37.9 17.25 37.6H18.15V43H1.5V42.55ZM27.5859 43.45C26.3459 43.45 25.2359 43.18 24.2559 42.64C23.7759 42.38 23.3859 42.1 23.0859 41.8C22.7659 42.24 22.4159 42.58 22.0359 42.82C21.8559 42.94 21.6559 43.05 21.4359 43.15H20.6859V38.05H21.8859C22.1459 38.89 22.5259 39.67 23.0259 40.39C24.0859 41.93 25.4059 42.7 26.9859 42.7C27.8259 42.7 28.4559 42.5 28.8759 42.1C29.3159 41.68 29.5359 41.08 29.5359 40.3C29.5359 39.64 29.2359 39.09 28.6359 38.65C28.0559 38.19 27.1359 37.63 25.8759 36.97C24.7959 36.43 23.9159 35.95 23.2359 35.53C22.5759 35.09 22.0059 34.55 21.5259 33.91C21.0659 33.25 20.8359 32.48 20.8359 31.6C20.8359 30.4 21.3459 29.43 22.3659 28.69C23.4059 27.93 24.9959 27.55 27.1359 27.55C28.1959 27.55 29.1759 27.83 30.0759 28.39C30.5159 28.65 30.8959 28.92 31.2159 29.2C31.4759 28.84 31.8259 28.5 32.2659 28.18C32.6059 27.98 32.8059 27.87 32.8659 27.85H33.6159V32.95H32.4159C32.1159 32.09 31.7459 31.32 31.3059 30.64C30.3059 29.08 29.1159 28.3 27.7359 28.3C27.1959 28.3 26.7359 28.5 26.3559 28.9C25.9759 29.3 25.7859 29.8 25.7859 30.4C25.7859 31.16 26.1059 31.8 26.7459 32.32C27.3859 32.82 28.3559 33.4 29.6559 34.06C30.7159 34.6 31.5559 35.08 32.1759 35.5C32.8159 35.9 33.3559 36.4 33.7959 37C34.2559 37.6 34.4859 38.3 34.4859 39.1C34.4859 42 32.1859 43.45 27.5859 43.45ZM43.7871 43.45C42.5471 43.45 41.4371 43.18 40.4571 42.64C39.9771 42.38 39.5871 42.1 39.2871 41.8C38.9671 42.24 38.6171 42.58 38.2371 42.82C38.0571 42.94 37.8571 43.05 37.6371 43.15H36.8871V38.05H38.0871C38.3471 38.89 38.7271 39.67 39.2271 40.39C40.2871 41.93 41.6071 42.7 43.1871 42.7C44.0271 42.7 44.6571 42.5 45.0771 42.1C45.5171 41.68 45.7371 41.08 45.7371 40.3C45.7371 39.64 45.4371 39.09 44.8371 38.65C44.2571 38.19 43.3371 37.63 42.0771 36.97C40.9971 36.43 40.1171 35.95 39.4371 35.53C38.7771 35.09 38.2071 34.55 37.7271 33.91C37.2671 33.25 37.0371 32.48 37.0371 31.6C37.0371 30.4 37.5471 29.43 38.5671 28.69C39.6071 27.93 41.1971 27.55 43.3371 27.55C44.3971 27.55 45.3771 27.83 46.2771 28.39C46.7171 28.65 47.0971 28.92 47.4171 29.2C47.6771 28.84 48.0271 28.5 48.4671 28.18C48.8071 27.98 49.0071 27.87 49.0671 27.85H49.8171V32.95H48.6171C48.3171 32.09 47.9471 31.32 47.5071 30.64C46.5071 29.08 45.3171 28.3 43.9371 28.3C43.3971 28.3 42.9371 28.5 42.5571 28.9C42.1771 29.3 41.9871 29.8 41.9871 30.4C41.9871 31.16 42.3071 31.8 42.9471 32.32C43.5871 32.82 44.5571 33.4 45.8571 34.06C46.9171 34.6 47.7571 35.08 48.3771 35.5C49.0171 35.9 49.5571 36.4 49.9971 37C50.4571 37.6 50.6871 38.3 50.6871 39.1C50.6871 42 48.3871 43.45 43.7871 43.45ZM61.0383 43.45C58.4783 43.45 56.4883 42.75 55.0683 41.35C53.6483 39.93 52.9383 37.98 52.9383 35.5C52.9383 33.88 53.2483 32.47 53.8683 31.27C54.4883 30.07 55.3483 29.15 56.4483 28.51C57.5683 27.87 58.8483 27.55 60.2883 27.55C61.7283 27.55 62.9883 27.82 64.0683 28.36C65.1683 28.9 66.0083 29.63 66.5883 30.55C67.1883 31.45 67.4883 32.45 67.4883 33.55C67.4883 34.05 67.4383 34.48 67.3383 34.84L67.1883 35.35C66.3283 35.53 65.3983 35.68 64.3983 35.8C62.2983 36.1 60.1783 36.25 58.0383 36.25C58.0383 38.57 58.3583 40.23 58.9983 41.23C59.6383 42.21 60.5183 42.7 61.6383 42.7C62.4183 42.7 63.1383 42.52 63.7983 42.16C64.4783 41.78 65.0083 41.29 65.3883 40.69C65.7883 40.07 65.9883 39.44 65.9883 38.8H66.7383C66.7383 39.6 66.4983 40.36 66.0183 41.08C65.5383 41.8 64.8683 42.38 64.0083 42.82C63.1483 43.24 62.1583 43.45 61.0383 43.45ZM58.0383 35.5C59.3183 35.5 60.3583 35.45 61.1583 35.35C61.4983 35.33 61.8583 35.28 62.2383 35.2C62.2583 35.1 62.3083 34.88 62.3883 34.54C62.4883 34.04 62.5383 33.51 62.5383 32.95C62.5383 31.29 62.3183 30.08 61.8783 29.32C61.4383 28.54 60.9083 28.15 60.2883 28.15C58.7883 28.15 58.0383 30.6 58.0383 35.5ZM55.7883 26.5L60.1383 21.55L64.4883 26.5H63.4383L60.1383 24.4L56.8383 26.5H55.7883ZM69.7254 42.55L71.5254 42.1V28.9L69.7254 28.45V28H72.4254C73.6054 28 74.5354 28.38 75.2154 29.14C75.4754 29.44 75.6954 29.81 75.8754 30.25C76.1554 29.73 76.4854 29.28 76.8654 28.9C77.7654 28 78.8854 27.55 80.2254 27.55C81.3454 27.55 82.3454 27.79 83.2254 28.27C84.1254 28.73 84.8254 29.34 85.3254 30.1C85.8254 30.86 86.0754 31.66 86.0754 32.5V42.1L87.8754 42.55V43H83.9754C82.1754 43 81.2754 42.1 81.2754 40.3V32.5C81.2754 31.24 81.0454 30.28 80.5854 29.62C80.1454 28.94 79.6254 28.6 79.0254 28.6C78.2654 28.6 77.5854 29 76.9854 29.8C76.7254 30.14 76.5054 30.54 76.3254 31V42.1L78.1254 42.55V43H69.7254V42.55ZM97.7766 43.45C95.2166 43.45 93.2266 42.75 91.8066 41.35C90.3866 39.93 89.6766 37.98 89.6766 35.5C89.6766 33.02 90.3866 31.08 91.8066 29.68C93.2266 28.26 95.2166 27.55 97.7766 27.55C99.6166 27.55 100.997 27.87 101.917 28.51C102.857 29.15 103.327 29.93 103.327 30.85C103.327 31.53 103.117 32.08 102.697 32.5C102.297 32.9 101.757 33.1 101.077 33.1C100.797 33.1 100.517 33.08 100.237 33.04L99.8766 32.95V28.45L99.4566 28.3C99.1566 28.2 98.7966 28.15 98.3766 28.15C97.2366 28.15 96.3466 28.69 95.7066 29.77C95.0866 30.85 94.7766 32.76 94.7766 35.5C94.7766 38.16 95.0866 40.03 95.7066 41.11C96.3466 42.17 97.2366 42.7 98.3766 42.7C99.1566 42.7 99.8766 42.52 100.537 42.16C101.217 41.78 101.747 41.29 102.127 40.69C102.527 40.07 102.727 39.44 102.727 38.8H103.477C103.477 39.6 103.237 40.36 102.757 41.08C102.277 41.8 101.607 42.38 100.747 42.82C99.8866 43.24 98.8966 43.45 97.7766 43.45ZM105.585 42.55L107.385 42.1V28.9L105.585 28.45V28H109.485C111.285 28 112.185 28.9 112.185 30.7V42.1L113.985 42.55V43H105.585V42.55ZM109.485 26.2C108.885 26.2 108.385 26 107.985 25.6C107.585 25.2 107.385 24.7 107.385 24.1C107.385 23.5 107.585 23 107.985 22.6C108.385 22.2 108.885 22 109.485 22C110.085 22 110.585 22.2 110.985 22.6C111.385 23 111.585 23.5 111.585 24.1C111.585 24.7 111.385 25.2 110.985 25.6C110.585 26 110.085 26.2 109.485 26.2ZM121.63 43.45C119.85 43.45 118.48 43.07 117.52 42.31C116.56 41.55 116.08 40.58 116.08 39.4C116.08 38.62 116.25 37.85 116.59 37.09C116.73 36.73 116.91 36.4 117.13 36.1C117.95 35.9 118.84 35.72 119.8 35.56C121.96 35.2 123.87 34.98 125.53 34.9V34C125.53 31.78 125.26 30.25 124.72 29.41C124.18 28.57 123.35 28.15 122.23 28.15C121.81 28.15 121.45 28.2 121.15 28.3L120.73 28.45V32.95L120.34 33.04C120.02 33.08 119.75 33.1 119.53 33.1C118.85 33.1 118.3 32.9 117.88 32.5C117.48 32.08 117.28 31.53 117.28 30.85C117.28 29.93 117.74 29.15 118.66 28.51C119.6 27.87 120.99 27.55 122.83 27.55C124.39 27.55 125.73 27.83 126.85 28.39C127.99 28.93 128.85 29.69 129.43 30.67C130.03 31.63 130.33 32.74 130.33 34V42.1L132.13 42.55V43H129.43C128.23 43 127.3 42.63 126.64 41.89C126.36 41.59 126.14 41.21 125.98 40.75C125.7 41.25 125.37 41.7 124.99 42.1C124.09 43 122.97 43.45 121.63 43.45ZM122.83 42.4C123.57 42.4 124.24 42 124.84 41.2C125.06 40.9 125.29 40.5 125.53 40V35.65C124.61 35.65 123.73 35.7 122.89 35.8C122.27 35.88 121.85 35.93 121.63 35.95C121.53 36.17 121.43 36.47 121.33 36.85C121.13 37.61 121.03 38.36 121.03 39.1C121.03 40.22 121.2 41.05 121.54 41.59C121.88 42.13 122.31 42.4 122.83 42.4Z" fill="#2F0E3B"/>
<path d="M83.7243 17.9098C85.1819 24.5457 93.406 19.1134 85.2381 14.491C94.2402 19.5863 94.2616 7.41897 85.2564 12.5103C94.2616 7.41936 83.509 1.33334 83.507 11.5199C83.509 1.33334 72.7547 7.41462 81.7555 12.5103C72.7547 7.41423 72.7442 19.5819 81.7478 14.4902C73.5756 19.1102 81.781 24.5489 83.239 17.8996L83.7243 17.9098ZM82.4238 13.501C82.4234 13.3621 82.451 13.2243 82.5052 13.0958C82.5594 12.9672 82.639 12.8503 82.7395 12.7518C82.84 12.6533 82.9595 12.575 83.091 12.5215C83.2226 12.468 83.3636 12.4403 83.5061 12.44C83.6486 12.4404 83.7897 12.4681 83.9211 12.5216C84.0526 12.5751 84.172 12.6534 84.2725 12.7519C84.373 12.8505 84.4526 12.9673 84.5067 13.0959C84.5609 13.2244 84.5885 13.3621 84.5881 13.501C84.5885 13.64 84.5609 13.7777 84.5067 13.9062C84.4526 14.0347 84.373 14.1516 84.2725 14.2501C84.172 14.3487 84.0526 14.4269 83.9211 14.4805C83.7897 14.534 83.6486 14.5617 83.5061 14.5621C83.2184 14.5612 82.9428 14.4489 82.7399 14.2499C82.5369 14.051 82.4233 13.7817 82.4238 13.501Z" fill="#2F0E3B"/>
</svg>
