<svg width="50" height="51" viewBox="0 0 50 51" fill="none" xmlns="http://www.w3.org/2000/svg">
<g clip-path="url(#clip0_86_7)">
<path fill-rule="evenodd" clip-rule="evenodd" d="M9.6875 35.7C9.83304 35.5021 10.0218 35.3414 10.2387 35.2308C10.4557 35.1201 10.6949 35.0625 10.9375 35.0625H18.75C19.1644 35.0625 19.5618 35.2304 19.8549 35.5293C20.1479 35.8282 20.3125 36.2336 20.3125 36.6562C20.3125 37.0789 20.1479 37.4843 19.8549 37.7832C19.5618 38.0821 19.1644 38.25 18.75 38.25H11.7188L4.6875 47.8125H45.3125L38.2812 38.25H31.25C30.8356 38.25 30.4382 38.0821 30.1451 37.7832C29.8521 37.4843 29.6875 37.0789 29.6875 36.6562C29.6875 36.2336 29.8521 35.8282 30.1451 35.5293C30.4382 35.2304 30.8356 35.0625 31.25 35.0625H39.0625C39.3051 35.0625 39.5443 35.1201 39.7613 35.2308C39.9782 35.3414 40.167 35.5021 40.3125 35.7L49.6875 48.45C49.8616 48.6868 49.9676 48.9683 49.9937 49.2631C50.0197 49.5579 49.9648 49.8543 49.835 50.119C49.7053 50.3837 49.5058 50.6064 49.259 50.762C49.0121 50.9176 48.7277 51 48.4375 51H1.5625C1.27233 51 0.987883 50.9176 0.741046 50.762C0.494208 50.6064 0.294728 50.3837 0.164958 50.119C0.0351881 49.8543 -0.019745 49.5579 0.00631431 49.2631C0.0323736 48.9683 0.138396 48.6868 0.312501 48.45L9.6875 35.7Z" fill="black"/>
<path fill-rule="evenodd" clip-rule="evenodd" d="M12.5 12.7498C12.5002 10.2961 13.1946 7.89467 14.4997 5.83353C15.8048 3.7724 17.6653 2.13915 19.8578 1.12978C22.0504 0.120415 24.4819 -0.222207 26.8607 0.143031C29.2394 0.508269 31.4643 1.56585 33.2684 3.18888C35.0725 4.8119 36.3791 6.93143 37.0315 9.29312C37.6839 11.6548 37.6544 14.1584 36.9464 16.5034C36.2384 18.8483 34.8821 20.9352 33.0403 22.5134C31.1984 24.0916 28.9492 25.0943 26.5625 25.401V43.031C26.5625 43.4537 26.3979 43.8591 26.1049 44.158C25.8118 44.4569 25.4144 44.6248 25 44.6248C24.5856 44.6248 24.1882 44.4569 23.8951 44.158C23.6021 43.8591 23.4375 43.4537 23.4375 43.031V25.4042C20.4155 25.0158 17.6365 23.5154 15.6225 21.1847C13.6086 18.854 12.4982 15.8566 12.5 12.7498Z" fill="black"/>
</g>
<defs>
<clipPath id="clip0_86_7">
<rect width="50" height="51" fill="white"/>
</clipPath>
</defs>
</svg>
